<?xml version="1.0" encoding="UTF-8"?>
<!-- Generator: Adobe Illustrator 25.2.1, SVG Export Plug-In . SVG Version: 6.00 Build 0)  -->
<svg width="2029.6" height="301.6" version="1.1" viewBox="0 0 2029.6 301.6" xml:space="preserve" xmlns="http://www.w3.org/2000/svg">

<g transform="translate(751.28 -173.7)" fill="#76f935">
	<path d="m457.8 233.2v180.5h-36.8v-180.5z"/>
	<path d="m608 292v122.1c0 37.9-29.5 61.2-65.6 61.2-34.8 0-60.8-21.6-63.3-52.1l36.7 0.2c1.5 13 12.9 18.6 27.9 18.6 14.2 0 27.4-7.6 27.4-27.4v-15.6c-9.4 6.1-21.4 9.7-34.8 9.7-33.6 0-60.5-27.2-60.5-58.5 0-36.4 27-60.8 60.5-60.8 13.5 0 25.4 3.6 34.8 9.7v-6.6zm-36.8 71.9v-29.7c-7.5-10.9-17.9-14.5-28.2-14.5-18.1 0-30.7 12.1-30.7 30.5 0 13.5 12.6 28.3 30.7 28.3 10.3-0.1 20.7-3.8 28.2-14.6z"/>
	<path d="m754.8 351.4c0 37.6-27.8 64.4-65.1 64.4-37.6 0-65.4-26.8-65.4-64.4 0-37.3 27.8-64.6 65.4-64.6 37.3 0 65.1 27.3 65.1 64.6zm-35.5 0c0-17.7-11.6-32-29.6-32-18.2 0-29.8 14.3-29.8 32 0 18.2 11.6 31.8 29.8 31.8 17.9-0.1 29.6-13.6 29.6-31.8z"/>
	<path d="m983.3 292.2v121.3l-36.1 0.2v-6.9c-9.4 6.1-21.4 9.9-34.8 9.9-33.6 0-60.5-28.5-60.5-63.6 0-35.3 27-63.8 60.5-63.8 13.5 0 25.4 3.8 34.8 9.9v-6.9zm-36.1 79.5v-37.2c-7.6-10.8-18.2-13.8-28.8-13.8-18.5 0-31.3 14.8-31.3 32.5 0 17.5 12.8 32.3 31.3 32.3 10.6-0.1 21.2-3 28.8-13.8z"/>
	<path d="m1131.7 347.8v65.9h-35.5v-61.6c0-19.8-9.9-30.3-27.5-30.3-9.2 0-19.3 5.3-28 15.5v76.4h-36.3v-121.3h36.3v9.2c9.9-7.9 21.4-12.2 35.1-12.2 32.4 0 55.9 22.8 55.9 58.4z"/>
	<g id="lINT7W_1_">
		<g fill="#76f935">
			<polygon points="356 233.3 393.9 233.3 368 278.3 404.2 413.6 366.7 413.6 342.3 322.9 289.8 413.6 247.9 413.6 328.9 273.2 315.9 224.4 206.6 413.7 164.7 413.7 303.2 173.7 339.9 173.7" fill="#76f935"/>
		</g>
	</g>
	<path d="m1278.3 233.2v180.5h-36.8v-6.9c-9.4 6.1-21.4 9.9-34.8 9.9-33.6 0-60.5-28.5-60.5-63.8 0-35.1 27-63.6 60.5-63.6 13.5 0 25.4 3.8 34.8 9.9v-66.1zm-36.8 138.6v-37.5c-7.7-10.9-18.4-13.9-29-13.9-18.6 0-31.5 14.9-31.5 32.5 0 17.9 12.9 32.8 31.5 32.8 10.6 0 21.3-3 29-13.9z"/>
	<path d="m845.3 323c-8 1-26.8 1.9-37.8 17.1v73.7h-36.3v-121.2h36.3v9.1c8.3-7.1 20.8-11.3 37.8-9.6"/>
</g><g fill="#76f935" stroke-width="1.8088px" aria-label="Powered by"><path d="m1.1826e-6 240.69 21.358-121.55h49.489q9.3769 0 15.802 3.0388 6.5117 2.952 10.506 7.9009 3.9939 4.9489 5.7303 10.94 1.8233 5.9908 1.8233 11.982 0 8.2482-2.8652 15.802-2.8652 7.4668-8.5087 13.371-5.6435 5.904-13.979 9.3769-8.335 3.4729-19.362 3.4729h-29.954l-8.0745 45.669zm33.6-66.072h28.652q7.2931 0 11.721-3.1256 4.428-3.2124 6.4249-7.7272 2.0838-4.5148 2.0838-8.6823 0-3.907-1.2155-7.4668t-4.2543-5.8171q-3.0388-2.2574-8.5087-2.2574h-28.652z"/><path d="m137.11 242.78q-16.41 0-25.526-10.071-9.0296-10.071-9.0296-28.391 0-16.062 5.904-28.304t16.41-19.188q10.506-6.9458 24.224-6.9458 15.368 0 24.484 10.245 9.1164 10.158 9.1164 27.262 0 16.323-5.8171 28.825t-16.149 19.535q-10.245 7.0327-23.616 7.0327zm1.5628-20.317q6.7722 0 11.982-4.1675 5.2962-4.2543 8.2482-11.634 2.952-7.4668 2.952-17.017 0-9.3769-4.0807-14.586-3.9939-5.2094-11.461-5.2094-6.5986 0-11.895 4.2543-5.2094 4.2543-8.2482 11.634-2.952 7.38-2.952 16.757 0 9.6374 3.9939 14.847 4.0807 5.1226 11.461 5.1226z"/><path d="m207.9 240.69-8.5086-88.733h19.882l2.6915 46.19q0.17365 2.5179 0.17365 5.8171 0 3.2993 0 5.6435 0.95505-2.6047 2.0838-5.6435 1.2155-3.0388 2.1706-5.2962l19.882-46.711h19.101l3.9939 46.711q0.26047 2.6915 0.34729 5.8171 0.17365 3.0388 0.17365 5.1226 0.95505-2.952 1.9101-5.5567 1.0419-2.6047 2.0838-5.383l18.754-46.711h20.403l-37.594 88.733h-18.754l-4.8621-46.624q-0.17364-2.2574-0.34729-5.8171-0.0868-3.6466-0.17365-6.4249-0.95505 2.7783-2.431 6.4249-1.476 3.6466-2.431 5.9908l-19.969 46.45z"/><path d="m349.87 242.78q-10.853 0-18.927-4.3412-8.0745-4.428-12.589-12.85-4.5148-8.4218-4.5148-20.577 0-10.592 3.2124-20.403 3.2124-9.8978 9.3769-17.712 6.2512-7.8141 15.107-12.416 8.8559-4.6016 20.056-4.6016 10.679 0 18.146 4.428 7.5536 4.428 11.461 12.416 3.907 7.9009 3.907 18.32 0 5.0357-0.86823 9.8978-0.78141 4.7753-2.431 9.4637h-56.869q0 6.4249 2.0838 10.853 2.1706 4.3412 6.0776 6.6854 3.9939 2.2574 9.3769 2.2574 5.2094 0 10.592-2.431 5.4698-2.431 9.3769-6.4249l10.592 13.718q-6.3381 6.3381-14.413 10.071-7.9877 3.6466-18.754 3.6466zm-11.808-56.174h36.9q0.17365-5.4698-1.476-9.5505-1.6496-4.1675-5.2094-6.4249-3.4729-2.3442-8.6823-2.3442-5.383 0-9.7242 2.2574-4.3412 2.1706-7.38 6.3381-3.0388 4.0807-4.428 9.7242z"/><path d="m404.94 240.69 15.628-88.733h20.751l-1.6496 8.9428q3.1256-5.0357 8.4218-8.0745 5.383-3.1256 10.94-3.1256 8.4218 0 14.673 6.4249l-6.1644 19.362q-2.7783-2.5179-6.3381-3.8202-3.4729-1.3892-7.0327-1.3892-4.9489 0-9.0296 2.6047-3.9938 2.5179-6.859 7.2063-2.7783 4.6016-3.907 11.027l-8.6823 49.576z"/><path d="m507.58 242.78q-10.853 0-18.927-4.3412-8.0745-4.428-12.589-12.85-4.5148-8.4218-4.5148-20.577 0-10.592 3.2124-20.403 3.2124-9.8978 9.3769-17.712 6.2512-7.8141 15.107-12.416 8.8559-4.6016 20.056-4.6016 10.679 0 18.146 4.428 7.5536 4.428 11.461 12.416 3.907 7.9009 3.907 18.32 0 5.0357-0.86823 9.8978-0.78141 4.7753-2.431 9.4637h-56.869q0 6.4249 2.0838 10.853 2.1706 4.3412 6.0776 6.6854 3.9939 2.2574 9.3769 2.2574 5.2094 0 10.592-2.431 5.4698-2.431 9.3769-6.4249l10.592 13.718q-6.3381 6.3381-14.413 10.071-7.9877 3.6466-18.754 3.6466zm-11.808-56.174h36.9q0.17365-5.4698-1.476-9.5505-1.6496-4.1675-5.2094-6.4249-3.4729-2.3442-8.6823-2.3442-5.383 0-9.7242 2.2574-4.3412 2.1706-7.38 6.3381-3.0388 4.0807-4.428 9.7242z"/><path d="m593.73 242.78q-13.023 0-20.751-9.9846t-7.7272-26.828q0-16.236 5.6435-28.912 5.7303-12.676 15.715-19.882 9.9846-7.2931 22.748-7.2931 5.9908 0 10.679 2.1706 4.7753 2.1706 7.4668 6.3381l6.2513-35.945 22.14-7.1195-22.053 125.37h-20.403l1.3892-7.9877q-3.7334 4.7753-9.2032 7.4668-5.383 2.6047-11.895 2.6047zm7.0327-20.143q4.9489 0 9.5505-2.2574t7.4668-5.9908l6.2512-36.205q-1.7365-3.907-5.383-6.0776-3.5598-2.2574-8.335-2.2574-7.2931 0-12.763 4.2543-5.383 4.1675-8.4218 11.721-3.0388 7.5536-3.0388 17.538 0 9.1164 3.8202 14.239 3.907 5.0357 10.853 5.0357z"/><path d="m740.18 242.78q-6.2513 0-11.634-2.6915-5.383-2.7783-7.8141-7.2063l-1.3892 7.8141h-20.317l20.751-118.25 22.14-7.1195-7.6404 43.151q3.907-4.0807 9.2032-6.3381 5.2962-2.2574 11.027-2.2574 8.5087 0 15.02 4.7753 6.5986 4.7753 10.245 13.371 3.6466 8.5087 3.6466 19.709 0 16.236-5.5567 28.652-5.4698 12.416-15.194 19.448-9.7242 6.9458-22.487 6.9458zm-1.7365-20.143q7.0327 0 12.416-4.1675 5.383-4.2543 8.4218-11.634 3.1256-7.4668 3.1256-17.191 0-9.2901-4.1675-14.499-4.0807-5.2962-11.374-5.2962-4.2543 0-8.856 2.3442t-7.2063 5.8171l-6.5117 36.813q2.0838 3.7334 5.6435 5.8171 3.6466 1.9969 8.5087 1.9969z"/><path d="m793.86 274.38 19.275-35.684-16.583-86.736h20.838l9.6374 53.222q0.34729 1.7365 0.69458 3.907 0.3473 2.0838 0.52094 3.907 0.78141-2.0838 1.7365-3.9939 0.95506-1.9969 1.9101-3.8202l28.738-53.222h22.487l-66.506 122.42z"/></g><text x="696.04395" y="144.36385" fill="none" font-family="Overpass" font-size="40px" font-style="italic" font-weight="bold" letter-spacing="-.5px" stroke="#000000" stroke-width="1px" word-spacing="-2.67px" style="line-height:125%" xml:space="preserve"><tspan x="696.04395" y="144.36385"/><tspan x="696.04395" y="194.36385"/></text></svg>
